<mxfile host="Electron" modified="2024-04-23T14:01:05.183Z" agent="Mozilla/5.0 (Macintosh; Intel Mac OS X 10_15_7) AppleWebKit/537.36 (KHTML, like Gecko) draw.io/24.2.5 Chrome/120.0.6099.109 Electron/28.1.0 Safari/537.36" etag="FMP_hnQzUjJSWUxD77J1" version="24.2.5" type="device">
  <diagram name="Page-1" id="Y597vWajVzmeyiih8ubD">
    <mxGraphModel dx="1076" dy="642" grid="1" gridSize="10" guides="1" tooltips="1" connect="1" arrows="1" fold="1" page="1" pageScale="1" pageWidth="827" pageHeight="1169" math="0" shadow="0">
      <root>
        <mxCell id="0" />
        <mxCell id="1" parent="0" />
        <mxCell id="63r56ySnQLTD0TMt7zbT-21" value="" style="rounded=0;whiteSpace=wrap;html=1;fillColor=none;" vertex="1" parent="1">
          <mxGeometry x="10" y="10" width="230" height="520" as="geometry" />
        </mxCell>
        <mxCell id="KMYah3zK5PqTwBh4gNwx-1" value="Java application" style="rounded=1;whiteSpace=wrap;html=1;" parent="1" vertex="1">
          <mxGeometry x="90" y="210" width="120" height="60" as="geometry" />
        </mxCell>
        <mxCell id="63r56ySnQLTD0TMt7zbT-4" style="rounded=0;orthogonalLoop=1;jettySize=auto;html=1;exitX=1;exitY=0.5;exitDx=0;exitDy=0;entryX=0;entryY=0.25;entryDx=0;entryDy=0;" edge="1" parent="1" source="KMYah3zK5PqTwBh4gNwx-2" target="KMYah3zK5PqTwBh4gNwx-8">
          <mxGeometry relative="1" as="geometry" />
        </mxCell>
        <mxCell id="KMYah3zK5PqTwBh4gNwx-2" value="Agent" style="rounded=1;whiteSpace=wrap;html=1;fillColor=#dae8fc;strokeColor=#6c8ebf;" parent="1" vertex="1">
          <mxGeometry x="150" y="200" width="70" height="30" as="geometry" />
        </mxCell>
        <mxCell id="KMYah3zK5PqTwBh4gNwx-4" value="Java application" style="rounded=1;whiteSpace=wrap;html=1;" parent="1" vertex="1">
          <mxGeometry x="90" y="330" width="120" height="60" as="geometry" />
        </mxCell>
        <mxCell id="63r56ySnQLTD0TMt7zbT-5" style="rounded=0;orthogonalLoop=1;jettySize=auto;html=1;exitX=1;exitY=0.5;exitDx=0;exitDy=0;entryX=0;entryY=0.5;entryDx=0;entryDy=0;" edge="1" parent="1" source="KMYah3zK5PqTwBh4gNwx-5" target="KMYah3zK5PqTwBh4gNwx-8">
          <mxGeometry relative="1" as="geometry" />
        </mxCell>
        <mxCell id="KMYah3zK5PqTwBh4gNwx-5" value="Agent" style="rounded=1;whiteSpace=wrap;html=1;fillColor=#dae8fc;strokeColor=#6c8ebf;" parent="1" vertex="1">
          <mxGeometry x="150" y="320" width="70" height="30" as="geometry" />
        </mxCell>
        <mxCell id="KMYah3zK5PqTwBh4gNwx-6" value="Java application" style="rounded=1;whiteSpace=wrap;html=1;" parent="1" vertex="1">
          <mxGeometry x="90" y="450" width="120" height="60" as="geometry" />
        </mxCell>
        <mxCell id="63r56ySnQLTD0TMt7zbT-6" style="rounded=0;orthogonalLoop=1;jettySize=auto;html=1;exitX=1;exitY=0.5;exitDx=0;exitDy=0;entryX=0;entryY=0.75;entryDx=0;entryDy=0;" edge="1" parent="1" source="KMYah3zK5PqTwBh4gNwx-7" target="KMYah3zK5PqTwBh4gNwx-8">
          <mxGeometry relative="1" as="geometry">
            <mxPoint x="390" y="460" as="targetPoint" />
          </mxGeometry>
        </mxCell>
        <mxCell id="KMYah3zK5PqTwBh4gNwx-7" value="Agent" style="rounded=1;whiteSpace=wrap;html=1;fillColor=#dae8fc;strokeColor=#6c8ebf;" parent="1" vertex="1">
          <mxGeometry x="150" y="440" width="70" height="30" as="geometry" />
        </mxCell>
        <mxCell id="KMYah3zK5PqTwBh4gNwx-8" value="Coordinator" style="rounded=1;whiteSpace=wrap;html=1;fillColor=#dae8fc;strokeColor=#6c8ebf;" parent="1" vertex="1">
          <mxGeometry x="290" y="305" width="120" height="60" as="geometry" />
        </mxCell>
        <mxCell id="KMYah3zK5PqTwBh4gNwx-10" value="Database" style="shape=cylinder3;whiteSpace=wrap;html=1;boundedLbl=1;backgroundOutline=1;size=15;" parent="1" vertex="1">
          <mxGeometry x="614.95" y="280" width="90" height="80" as="geometry" />
        </mxCell>
        <mxCell id="KMYah3zK5PqTwBh4gNwx-11" value="Manager" style="rounded=1;whiteSpace=wrap;html=1;fillColor=#dae8fc;strokeColor=#6c8ebf;" parent="1" vertex="1">
          <mxGeometry x="290" y="585" width="120" height="60" as="geometry" />
        </mxCell>
        <mxCell id="KMYah3zK5PqTwBh4gNwx-12" value="Trace aggregator" style="shape=cylinder3;whiteSpace=wrap;html=1;boundedLbl=1;backgroundOutline=1;size=15;" parent="1" vertex="1">
          <mxGeometry x="305" y="140" width="90" height="80" as="geometry" />
        </mxCell>
        <mxCell id="63r56ySnQLTD0TMt7zbT-44" style="edgeStyle=orthogonalEdgeStyle;rounded=0;orthogonalLoop=1;jettySize=auto;html=1;" edge="1" parent="1" source="KMYah3zK5PqTwBh4gNwx-13" target="KMYah3zK5PqTwBh4gNwx-11">
          <mxGeometry relative="1" as="geometry" />
        </mxCell>
        <mxCell id="KMYah3zK5PqTwBh4gNwx-13" value="Operator" style="shape=umlActor;verticalLabelPosition=bottom;verticalAlign=top;html=1;outlineConnect=0;" parent="1" vertex="1">
          <mxGeometry x="110" y="585" width="30" height="60" as="geometry" />
        </mxCell>
        <mxCell id="KMYah3zK5PqTwBh4gNwx-14" value="Trace processor" style="rounded=1;whiteSpace=wrap;html=1;fillColor=#dae8fc;strokeColor=#6c8ebf;" parent="1" vertex="1">
          <mxGeometry x="480.37" y="200" width="120" height="60" as="geometry" />
        </mxCell>
        <mxCell id="KMYah3zK5PqTwBh4gNwx-15" value="Trace collector" style="rounded=1;whiteSpace=wrap;html=1;fillColor=#dae8fc;strokeColor=#6c8ebf;" parent="1" vertex="1">
          <mxGeometry x="480.37" y="115" width="120" height="60" as="geometry" />
        </mxCell>
        <mxCell id="KMYah3zK5PqTwBh4gNwx-16" value="" style="shape=image;verticalLabelPosition=bottom;labelBackgroundColor=default;verticalAlign=top;aspect=fixed;imageAspect=0;image=https://grafana.com/static/assets/img/logos/grafana-tempo.svg;" parent="1" vertex="1">
          <mxGeometry x="349" y="130" width="49.06" height="40" as="geometry" />
        </mxCell>
        <mxCell id="KMYah3zK5PqTwBh4gNwx-17" value="" style="shape=image;verticalLabelPosition=bottom;labelBackgroundColor=default;verticalAlign=top;aspect=fixed;imageAspect=0;image=https://upload.wikimedia.org/wikipedia/commons/thumb/2/29/Postgresql_elephant.svg/993px-Postgresql_elephant.svg.png;" parent="1" vertex="1">
          <mxGeometry x="681.12" y="287.99" width="40.74" height="42.01" as="geometry" />
        </mxCell>
        <mxCell id="KMYah3zK5PqTwBh4gNwx-19" value="" style="shape=image;verticalLabelPosition=bottom;labelBackgroundColor=default;verticalAlign=top;aspect=fixed;imageAspect=0;image=https://seeklogo.com/images/O/opentelemetry-logo-2DC4F51D47-seeklogo.com.png;" parent="1" vertex="1">
          <mxGeometry x="130" y="300" width="40" height="40" as="geometry" />
        </mxCell>
        <mxCell id="KMYah3zK5PqTwBh4gNwx-20" value="" style="shape=image;verticalLabelPosition=bottom;labelBackgroundColor=default;verticalAlign=top;aspect=fixed;imageAspect=0;image=https://seeklogo.com/images/O/opentelemetry-logo-2DC4F51D47-seeklogo.com.png;" parent="1" vertex="1">
          <mxGeometry x="130" y="420" width="40" height="40" as="geometry" />
        </mxCell>
        <mxCell id="KMYah3zK5PqTwBh4gNwx-21" value="" style="shape=image;verticalLabelPosition=bottom;labelBackgroundColor=default;verticalAlign=top;aspect=fixed;imageAspect=0;image=https://seeklogo.com/images/O/opentelemetry-logo-2DC4F51D47-seeklogo.com.png;" parent="1" vertex="1">
          <mxGeometry x="130" y="180" width="40" height="40" as="geometry" />
        </mxCell>
        <mxCell id="63r56ySnQLTD0TMt7zbT-7" style="rounded=0;orthogonalLoop=1;jettySize=auto;html=1;exitX=1;exitY=0.25;exitDx=0;exitDy=0;dashed=1;entryX=0;entryY=0.5;entryDx=0;entryDy=0;entryPerimeter=0;" edge="1" parent="1" source="KMYah3zK5PqTwBh4gNwx-2" target="KMYah3zK5PqTwBh4gNwx-12">
          <mxGeometry relative="1" as="geometry">
            <mxPoint x="320" y="180" as="targetPoint" />
          </mxGeometry>
        </mxCell>
        <mxCell id="63r56ySnQLTD0TMt7zbT-8" style="rounded=0;orthogonalLoop=1;jettySize=auto;html=1;exitX=1;exitY=0.25;exitDx=0;exitDy=0;entryX=0;entryY=0;entryDx=0;entryDy=52.5;entryPerimeter=0;dashed=1;" edge="1" parent="1" source="KMYah3zK5PqTwBh4gNwx-5" target="KMYah3zK5PqTwBh4gNwx-12">
          <mxGeometry relative="1" as="geometry" />
        </mxCell>
        <mxCell id="63r56ySnQLTD0TMt7zbT-9" style="rounded=0;orthogonalLoop=1;jettySize=auto;html=1;exitX=1;exitY=0.25;exitDx=0;exitDy=0;entryX=0.048;entryY=0.893;entryDx=0;entryDy=0;entryPerimeter=0;dashed=1;" edge="1" parent="1" source="KMYah3zK5PqTwBh4gNwx-7" target="KMYah3zK5PqTwBh4gNwx-12">
          <mxGeometry relative="1" as="geometry" />
        </mxCell>
        <mxCell id="63r56ySnQLTD0TMt7zbT-10" style="edgeStyle=orthogonalEdgeStyle;rounded=0;orthogonalLoop=1;jettySize=auto;html=1;exitX=1;exitY=0.25;exitDx=0;exitDy=0;entryX=0;entryY=0.5;entryDx=0;entryDy=0;entryPerimeter=0;" edge="1" parent="1" source="KMYah3zK5PqTwBh4gNwx-8" target="KMYah3zK5PqTwBh4gNwx-10">
          <mxGeometry relative="1" as="geometry" />
        </mxCell>
        <mxCell id="63r56ySnQLTD0TMt7zbT-12" style="rounded=0;orthogonalLoop=1;jettySize=auto;html=1;dashed=1;entryX=1;entryY=0;entryDx=0;entryDy=52.5;entryPerimeter=0;exitX=0;exitY=0.5;exitDx=0;exitDy=0;" edge="1" parent="1" source="KMYah3zK5PqTwBh4gNwx-14" target="KMYah3zK5PqTwBh4gNwx-12">
          <mxGeometry relative="1" as="geometry">
            <mxPoint x="395" y="180" as="targetPoint" />
          </mxGeometry>
        </mxCell>
        <mxCell id="63r56ySnQLTD0TMt7zbT-24" value="query" style="edgeLabel;html=1;align=center;verticalAlign=middle;resizable=0;points=[];" vertex="1" connectable="0" parent="63r56ySnQLTD0TMt7zbT-12">
          <mxGeometry x="-0.1296" y="2" relative="1" as="geometry">
            <mxPoint x="-3" y="-3" as="offset" />
          </mxGeometry>
        </mxCell>
        <mxCell id="63r56ySnQLTD0TMt7zbT-18" value="FASTEN API" style="text;html=1;align=center;verticalAlign=middle;resizable=0;points=[];autosize=1;strokeColor=none;fillColor=none;" vertex="1" parent="1">
          <mxGeometry x="612.88" y="660" width="90" height="30" as="geometry" />
        </mxCell>
        <mxCell id="63r56ySnQLTD0TMt7zbT-19" value="" style="ellipse;shape=cloud;whiteSpace=wrap;html=1;" vertex="1" parent="1">
          <mxGeometry x="544.95" y="580" width="230" height="80" as="geometry" />
        </mxCell>
        <mxCell id="63r56ySnQLTD0TMt7zbT-2" value="" style="shape=image;verticalLabelPosition=bottom;labelBackgroundColor=default;verticalAlign=top;aspect=fixed;imageAspect=0;image=https://user-images.githubusercontent.com/45048351/89221900-bdad6400-d5dc-11ea-8136-533875bbee8e.jpg;" vertex="1" parent="1">
          <mxGeometry x="599.9" y="602.5" width="121.96" height="35" as="geometry" />
        </mxCell>
        <mxCell id="63r56ySnQLTD0TMt7zbT-22" value="Service mesh" style="text;html=1;align=center;verticalAlign=middle;resizable=0;points=[];autosize=1;strokeColor=none;fillColor=none;" vertex="1" parent="1">
          <mxGeometry x="70" y="10" width="100" height="30" as="geometry" />
        </mxCell>
        <mxCell id="63r56ySnQLTD0TMt7zbT-25" style="rounded=0;orthogonalLoop=1;jettySize=auto;html=1;exitX=0;exitY=0.5;exitDx=0;exitDy=0;entryX=1;entryY=0;entryDx=0;entryDy=27.5;entryPerimeter=0;dashed=1;" edge="1" parent="1" source="KMYah3zK5PqTwBh4gNwx-15" target="KMYah3zK5PqTwBh4gNwx-12">
          <mxGeometry relative="1" as="geometry" />
        </mxCell>
        <mxCell id="63r56ySnQLTD0TMt7zbT-26" value="search" style="edgeLabel;html=1;align=center;verticalAlign=middle;resizable=0;points=[];" vertex="1" connectable="0" parent="63r56ySnQLTD0TMt7zbT-25">
          <mxGeometry x="0.0247" y="2" relative="1" as="geometry">
            <mxPoint x="4" y="-3" as="offset" />
          </mxGeometry>
        </mxCell>
        <mxCell id="63r56ySnQLTD0TMt7zbT-27" style="edgeStyle=orthogonalEdgeStyle;rounded=0;orthogonalLoop=1;jettySize=auto;html=1;exitX=1;exitY=0.5;exitDx=0;exitDy=0;entryX=0.855;entryY=0;entryDx=0;entryDy=4.35;entryPerimeter=0;dashed=1;" edge="1" parent="1" source="KMYah3zK5PqTwBh4gNwx-15" target="KMYah3zK5PqTwBh4gNwx-10">
          <mxGeometry relative="1" as="geometry" />
        </mxCell>
        <mxCell id="63r56ySnQLTD0TMt7zbT-28" style="edgeStyle=orthogonalEdgeStyle;rounded=0;orthogonalLoop=1;jettySize=auto;html=1;exitX=1;exitY=0.5;exitDx=0;exitDy=0;entryX=0.145;entryY=0;entryDx=0;entryDy=4.35;entryPerimeter=0;dashed=1;" edge="1" parent="1" source="KMYah3zK5PqTwBh4gNwx-14" target="KMYah3zK5PqTwBh4gNwx-10">
          <mxGeometry relative="1" as="geometry" />
        </mxCell>
        <mxCell id="63r56ySnQLTD0TMt7zbT-29" value="Service mesh&lt;div&gt;control plane&lt;/div&gt;" style="rounded=1;whiteSpace=wrap;html=1;" vertex="1" parent="1">
          <mxGeometry x="90" y="90" width="120" height="60" as="geometry" />
        </mxCell>
        <mxCell id="63r56ySnQLTD0TMt7zbT-30" value="" style="shape=image;verticalLabelPosition=bottom;labelBackgroundColor=default;verticalAlign=top;aspect=fixed;imageAspect=0;image=https://api.civo.com/k3s-marketplace/istio.png;clipPath=inset(11.67% 24% 11.67% 23.33%);" vertex="1" parent="1">
          <mxGeometry x="80" y="60" width="34.35" height="50" as="geometry" />
        </mxCell>
        <mxCell id="63r56ySnQLTD0TMt7zbT-31" style="rounded=0;orthogonalLoop=1;jettySize=auto;html=1;exitX=1;exitY=0.5;exitDx=0;exitDy=0;dashed=1;entryX=0;entryY=0;entryDx=0;entryDy=27.5;entryPerimeter=0;" edge="1" parent="1" source="63r56ySnQLTD0TMt7zbT-29" target="KMYah3zK5PqTwBh4gNwx-12">
          <mxGeometry relative="1" as="geometry">
            <mxPoint x="305" y="155" as="targetPoint" />
          </mxGeometry>
        </mxCell>
        <mxCell id="63r56ySnQLTD0TMt7zbT-35" style="edgeStyle=orthogonalEdgeStyle;rounded=0;orthogonalLoop=1;jettySize=auto;html=1;exitX=0;exitY=0.5;exitDx=0;exitDy=0;entryX=0;entryY=0.5;entryDx=0;entryDy=0;dashed=1;" edge="1" parent="1" source="63r56ySnQLTD0TMt7zbT-32" target="63r56ySnQLTD0TMt7zbT-29">
          <mxGeometry relative="1" as="geometry" />
        </mxCell>
        <mxCell id="63r56ySnQLTD0TMt7zbT-32" value="Sidecar" style="rounded=1;whiteSpace=wrap;html=1;" vertex="1" parent="1">
          <mxGeometry x="50" y="200" width="50" height="80" as="geometry" />
        </mxCell>
        <mxCell id="63r56ySnQLTD0TMt7zbT-36" style="edgeStyle=orthogonalEdgeStyle;rounded=0;orthogonalLoop=1;jettySize=auto;html=1;exitX=0;exitY=0.5;exitDx=0;exitDy=0;entryX=0;entryY=0.5;entryDx=0;entryDy=0;dashed=1;" edge="1" parent="1" source="63r56ySnQLTD0TMt7zbT-33" target="63r56ySnQLTD0TMt7zbT-29">
          <mxGeometry relative="1" as="geometry" />
        </mxCell>
        <mxCell id="63r56ySnQLTD0TMt7zbT-33" value="Sidecar" style="rounded=1;whiteSpace=wrap;html=1;" vertex="1" parent="1">
          <mxGeometry x="50" y="320" width="50" height="80" as="geometry" />
        </mxCell>
        <mxCell id="63r56ySnQLTD0TMt7zbT-37" style="edgeStyle=orthogonalEdgeStyle;rounded=0;orthogonalLoop=1;jettySize=auto;html=1;exitX=0;exitY=0.5;exitDx=0;exitDy=0;entryX=0;entryY=0.5;entryDx=0;entryDy=0;dashed=1;" edge="1" parent="1" source="63r56ySnQLTD0TMt7zbT-34" target="63r56ySnQLTD0TMt7zbT-29">
          <mxGeometry relative="1" as="geometry" />
        </mxCell>
        <mxCell id="63r56ySnQLTD0TMt7zbT-34" value="Sidecar" style="rounded=1;whiteSpace=wrap;html=1;" vertex="1" parent="1">
          <mxGeometry x="50" y="440" width="50" height="80" as="geometry" />
        </mxCell>
        <mxCell id="63r56ySnQLTD0TMt7zbT-41" style="edgeStyle=orthogonalEdgeStyle;rounded=0;orthogonalLoop=1;jettySize=auto;html=1;exitX=1;exitY=0.75;exitDx=0;exitDy=0;entryX=0.16;entryY=0.55;entryDx=0;entryDy=0;entryPerimeter=0;" edge="1" parent="1" source="KMYah3zK5PqTwBh4gNwx-8" target="63r56ySnQLTD0TMt7zbT-19">
          <mxGeometry relative="1" as="geometry">
            <Array as="points">
              <mxPoint x="500" y="350" />
              <mxPoint x="500" y="624" />
            </Array>
          </mxGeometry>
        </mxCell>
        <mxCell id="63r56ySnQLTD0TMt7zbT-43" style="edgeStyle=orthogonalEdgeStyle;rounded=0;orthogonalLoop=1;jettySize=auto;html=1;exitX=0.5;exitY=0;exitDx=0;exitDy=0;entryX=0.5;entryY=1;entryDx=0;entryDy=0;entryPerimeter=0;" edge="1" parent="1" source="KMYah3zK5PqTwBh4gNwx-11" target="KMYah3zK5PqTwBh4gNwx-10">
          <mxGeometry relative="1" as="geometry" />
        </mxCell>
      </root>
    </mxGraphModel>
  </diagram>
</mxfile>
